<svg shape-rendering="auto" version="1.1" xmlns="http://www.w3.org/2000/svg" xmlns:xlink="http://www.w3.org/1999/xlink" xmlns:ev="http://www.w3.org/2001/xml-events" width="1000" height="1000"> <defs> <linearGradient id="gradient" gradientTransform="rotate(0 0.5 0.5)"> <stop offset="0%" stop-color="#000000"></stop><stop offset="100%" stop-color="#555555"></stop> </linearGradient> <mask id="qrcodemask"> <g fill="#fff"> <g> <g transform="translate(8,0) scale(0.002)" > <rect width="500" height="500" /> </g> <g transform="translate(9,0) scale(0.002)" > <rect width="500" height="500" /> </g> <g transform="translate(11,0) scale(0.002)" > <rect width="500" height="500" /> </g> <g transform="translate(12,0) scale(0.002)" > <rect width="500" height="500" /> </g> <g transform="translate(13,0) scale(0.002)" > <rect width="500" height="500" /> </g> <g transform="translate(9,1) scale(0.002)" > <rect width="500" height="500" /> </g> <g transform="translate(14,1) scale(0.002)" > <rect width="500" height="500" /> </g> <g transform="translate(16,1) scale(0.002)" > <rect width="500" height="500" /> </g> <g transform="translate(8,2) scale(0.002)" > <rect width="500" height="500" /> </g> <g transform="translate(9,2) scale(0.002)" > <rect width="500" height="500" /> </g> <g transform="translate(10,2) scale(0.002)" > <rect width="500" height="500" /> </g> <g transform="translate(11,2) scale(0.002)" > <rect width="500" height="500" /> </g> <g transform="translate(13,2) scale(0.002)" > <rect width="500" height="500" /> </g> <g transform="translate(14,2) scale(0.002)" > <rect width="500" height="500" /> </g> <g transform="translate(16,2) scale(0.002)" > <rect width="500" height="500" /> </g> <g transform="translate(11,3) scale(0.002)" > <rect width="500" height="500" /> </g> <g transform="translate(13,3) scale(0.002)" > <rect width="500" height="500" /> </g> <g transform="translate(14,3) scale(0.002)" > <rect width="500" height="500" /> </g> <g transform="translate(16,3) scale(0.002)" > <rect width="500" height="500" /> </g> <g transform="translate(9,4) scale(0.002)" > <rect width="500" height="500" /> </g> <g transform="translate(14,4) scale(0.002)" > <rect width="500" height="500" /> </g> <g transform="translate(8,5) scale(0.002)" > <rect width="500" height="500" /> </g> <g transform="translate(9,5) scale(0.002)" > <rect width="500" height="500" /> </g> <g transform="translate(10,5) scale(0.002)" > <rect width="500" height="500" /> </g> <g transform="translate(13,5) scale(0.002)" > <rect width="500" height="500" /> </g> <g transform="translate(14,5) scale(0.002)" > <rect width="500" height="500" /> </g> <g transform="translate(16,5) scale(0.002)" > <rect width="500" height="500" /> </g> <g transform="translate(8,6) scale(0.002)" > <rect width="500" height="500" /> </g> <g transform="translate(10,6) scale(0.002)" > <rect width="500" height="500" /> </g> <g transform="translate(12,6) scale(0.002)" > <rect width="500" height="500" /> </g> <g transform="translate(14,6) scale(0.002)" > <rect width="500" height="500" /> </g> <g transform="translate(16,6) scale(0.002)" > <rect width="500" height="500" /> </g> <g transform="translate(10,7) scale(0.002)" > <rect width="500" height="500" /> </g> <g transform="translate(11,7) scale(0.002)" > <rect width="500" height="500" /> </g> <g transform="translate(12,7) scale(0.002)" > <rect width="500" height="500" /> </g> <g transform="translate(16,7) scale(0.002)" > <rect width="500" height="500" /> </g> <g transform="translate(0,8) scale(0.002)" > <rect width="500" height="500" /> </g> <g transform="translate(2,8) scale(0.002)" > <rect width="500" height="500" /> </g> <g transform="translate(6,8) scale(0.002)" > <rect width="500" height="500" /> </g> <g transform="translate(7,8) scale(0.002)" > <rect width="500" height="500" /> </g> <g transform="translate(9,8) scale(0.002)" > <rect width="500" height="500" /> </g> <g transform="translate(11,8) scale(0.002)" > <rect width="500" height="500" /> </g> <g transform="translate(15,8) scale(0.002)" > <rect width="500" height="500" /> </g> <g transform="translate(19,8) scale(0.002)" > <rect width="500" height="500" /> </g> <g transform="translate(22,8) scale(0.002)" > <rect width="500" height="500" /> </g> <g transform="translate(24,8) scale(0.002)" > <rect width="500" height="500" /> </g> <g transform="translate(0,9) scale(0.002)" > <rect width="500" height="500" /> </g> <g transform="translate(1,9) scale(0.002)" > <rect width="500" height="500" /> </g> <g transform="translate(2,9) scale(0.002)" > <rect width="500" height="500" /> </g> <g transform="translate(4,9) scale(0.002)" > <rect width="500" height="500" /> </g> <g transform="translate(10,9) scale(0.002)" > <rect width="500" height="500" /> </g> <g transform="translate(11,9) scale(0.002)" > <rect width="500" height="500" /> </g> <g transform="translate(12,9) scale(0.002)" > <rect width="500" height="500" /> </g> <g transform="translate(13,9) scale(0.002)" > <rect width="500" height="500" /> </g> <g transform="translate(15,9) scale(0.002)" > <rect width="500" height="500" /> </g> <g transform="translate(16,9) scale(0.002)" > <rect width="500" height="500" /> </g> <g transform="translate(18,9) scale(0.002)" > <rect width="500" height="500" /> </g> <g transform="translate(19,9) scale(0.002)" > <rect width="500" height="500" /> </g> <g transform="translate(21,9) scale(0.002)" > <rect width="500" height="500" /> </g> <g transform="translate(23,9) scale(0.002)" > <rect width="500" height="500" /> </g> <g transform="translate(24,9) scale(0.002)" > <rect width="500" height="500" /> </g> <g transform="translate(6,10) scale(0.002)" > <rect width="500" height="500" /> </g> <g transform="translate(7,10) scale(0.002)" > <rect width="500" height="500" /> </g> <g transform="translate(8,10) scale(0.002)" > <rect width="500" height="500" /> </g> <g transform="translate(9,10) scale(0.002)" > <rect width="500" height="500" /> </g> <g transform="translate(10,10) scale(0.002)" > <rect width="500" height="500" /> </g> <g transform="translate(13,10) scale(0.002)" > <rect width="500" height="500" /> </g> <g transform="translate(14,10) scale(0.002)" > <rect width="500" height="500" /> </g> <g transform="translate(15,10) scale(0.002)" > <rect width="500" height="500" /> </g> <g transform="translate(16,10) scale(0.002)" > <rect width="500" height="500" /> </g> <g transform="translate(17,10) scale(0.002)" > <rect width="500" height="500" /> </g> <g transform="translate(19,10) scale(0.002)" > <rect width="500" height="500" /> </g> <g transform="translate(20,10) scale(0.002)" > <rect width="500" height="500" /> </g> <g transform="translate(21,10) scale(0.002)" > <rect width="500" height="500" /> </g> <g transform="translate(22,10) scale(0.002)" > <rect width="500" height="500" /> </g> <g transform="translate(24,10) scale(0.002)" > <rect width="500" height="500" /> </g> <g transform="translate(2,11) scale(0.002)" > <rect width="500" height="500" /> </g> <g transform="translate(4,11) scale(0.002)" > <rect width="500" height="500" /> </g> <g transform="translate(7,11) scale(0.002)" > <rect width="500" height="500" /> </g> <g transform="translate(8,11) scale(0.002)" > <rect width="500" height="500" /> </g> <g transform="translate(10,11) scale(0.002)" > <rect width="500" height="500" /> </g> <g transform="translate(11,11) scale(0.002)" > <rect width="500" height="500" /> </g> <g transform="translate(14,11) scale(0.002)" > <rect width="500" height="500" /> </g> <g transform="translate(15,11) scale(0.002)" > <rect width="500" height="500" /> </g> <g transform="translate(17,11) scale(0.002)" > <rect width="500" height="500" /> </g> <g transform="translate(21,11) scale(0.002)" > <rect width="500" height="500" /> </g> <g transform="translate(0,12) scale(0.002)" > <rect width="500" height="500" /> </g> <g transform="translate(3,12) scale(0.002)" > <rect width="500" height="500" /> </g> <g transform="translate(5,12) scale(0.002)" > <rect width="500" height="500" /> </g> <g transform="translate(6,12) scale(0.002)" > <rect width="500" height="500" /> </g> <g transform="translate(8,12) scale(0.002)" > <rect width="500" height="500" /> </g> <g transform="translate(9,12) scale(0.002)" > <rect width="500" height="500" /> </g> <g transform="translate(11,12) scale(0.002)" > <rect width="500" height="500" /> </g> <g transform="translate(12,12) scale(0.002)" > <rect width="500" height="500" /> </g> <g transform="translate(16,12) scale(0.002)" > <rect width="500" height="500" /> </g> <g transform="translate(18,12) scale(0.002)" > <rect width="500" height="500" /> </g> <g transform="translate(24,12) scale(0.002)" > <rect width="500" height="500" /> </g> <g transform="translate(1,13) scale(0.002)" > <rect width="500" height="500" /> </g> <g transform="translate(5,13) scale(0.002)" > <rect width="500" height="500" /> </g> <g transform="translate(7,13) scale(0.002)" > <rect width="500" height="500" /> </g> <g transform="translate(10,13) scale(0.002)" > <rect width="500" height="500" /> </g> <g transform="translate(15,13) scale(0.002)" > <rect width="500" height="500" /> </g> <g transform="translate(16,13) scale(0.002)" > <rect width="500" height="500" /> </g> <g transform="translate(18,13) scale(0.002)" > <rect width="500" height="500" /> </g> <g transform="translate(19,13) scale(0.002)" > <rect width="500" height="500" /> </g> <g transform="translate(23,13) scale(0.002)" > <rect width="500" height="500" /> </g> <g transform="translate(24,13) scale(0.002)" > <rect width="500" height="500" /> </g> <g transform="translate(0,14) scale(0.002)" > <rect width="500" height="500" /> </g> <g transform="translate(1,14) scale(0.002)" > <rect width="500" height="500" /> </g> <g transform="translate(2,14) scale(0.002)" > <rect width="500" height="500" /> </g> <g transform="translate(5,14) scale(0.002)" > <rect width="500" height="500" /> </g> <g transform="translate(6,14) scale(0.002)" > <rect width="500" height="500" /> </g> <g transform="translate(9,14) scale(0.002)" > <rect width="500" height="500" /> </g> <g transform="translate(11,14) scale(0.002)" > <rect width="500" height="500" /> </g> <g transform="translate(12,14) scale(0.002)" > <rect width="500" height="500" /> </g> <g transform="translate(13,14) scale(0.002)" > <rect width="500" height="500" /> </g> <g transform="translate(15,14) scale(0.002)" > <rect width="500" height="500" /> </g> <g transform="translate(16,14) scale(0.002)" > <rect width="500" height="500" /> </g> <g transform="translate(18,14) scale(0.002)" > <rect width="500" height="500" /> </g> <g transform="translate(21,14) scale(0.002)" > <rect width="500" height="500" /> </g> <g transform="translate(22,14) scale(0.002)" > <rect width="500" height="500" /> </g> <g transform="translate(24,14) scale(0.002)" > <rect width="500" height="500" /> </g> <g transform="translate(2,15) scale(0.002)" > <rect width="500" height="500" /> </g> <g transform="translate(7,15) scale(0.002)" > <rect width="500" height="500" /> </g> <g transform="translate(8,15) scale(0.002)" > <rect width="500" height="500" /> </g> <g transform="translate(9,15) scale(0.002)" > <rect width="500" height="500" /> </g> <g transform="translate(12,15) scale(0.002)" > <rect width="500" height="500" /> </g> <g transform="translate(14,15) scale(0.002)" > <rect width="500" height="500" /> </g> <g transform="translate(15,15) scale(0.002)" > <rect width="500" height="500" /> </g> <g transform="translate(16,15) scale(0.002)" > <rect width="500" height="500" /> </g> <g transform="translate(17,15) scale(0.002)" > <rect width="500" height="500" /> </g> <g transform="translate(19,15) scale(0.002)" > <rect width="500" height="500" /> </g> <g transform="translate(20,15) scale(0.002)" > <rect width="500" height="500" /> </g> <g transform="translate(21,15) scale(0.002)" > <rect width="500" height="500" /> </g> <g transform="translate(0,16) scale(0.002)" > <rect width="500" height="500" /> </g> <g transform="translate(1,16) scale(0.002)" > <rect width="500" height="500" /> </g> <g transform="translate(2,16) scale(0.002)" > <rect width="500" height="500" /> </g> <g transform="translate(4,16) scale(0.002)" > <rect width="500" height="500" /> </g> <g transform="translate(6,16) scale(0.002)" > <rect width="500" height="500" /> </g> <g transform="translate(8,16) scale(0.002)" > <rect width="500" height="500" /> </g> <g transform="translate(12,16) scale(0.002)" > <rect width="500" height="500" /> </g> <g transform="translate(16,16) scale(0.002)" > <rect width="500" height="500" /> </g> <g transform="translate(17,16) scale(0.002)" > <rect width="500" height="500" /> </g> <g transform="translate(18,16) scale(0.002)" > <rect width="500" height="500" /> </g> <g transform="translate(19,16) scale(0.002)" > <rect width="500" height="500" /> </g> <g transform="translate(20,16) scale(0.002)" > <rect width="500" height="500" /> </g> <g transform="translate(23,16) scale(0.002)" > <rect width="500" height="500" /> </g> <g transform="translate(8,17) scale(0.002)" > <rect width="500" height="500" /> </g> <g transform="translate(9,17) scale(0.002)" > <rect width="500" height="500" /> </g> <g transform="translate(11,17) scale(0.002)" > <rect width="500" height="500" /> </g> <g transform="translate(12,17) scale(0.002)" > <rect width="500" height="500" /> </g> <g transform="translate(13,17) scale(0.002)" > <rect width="500" height="500" /> </g> <g transform="translate(16,17) scale(0.002)" > <rect width="500" height="500" /> </g> <g transform="translate(20,17) scale(0.002)" > <rect width="500" height="500" /> </g> <g transform="translate(24,17) scale(0.002)" > <rect width="500" height="500" /> </g> <g transform="translate(8,18) scale(0.002)" > <rect width="500" height="500" /> </g> <g transform="translate(9,18) scale(0.002)" > <rect width="500" height="500" /> </g> <g transform="translate(11,18) scale(0.002)" > <rect width="500" height="500" /> </g> <g transform="translate(12,18) scale(0.002)" > <rect width="500" height="500" /> </g> <g transform="translate(13,18) scale(0.002)" > <rect width="500" height="500" /> </g> <g transform="translate(16,18) scale(0.002)" > <rect width="500" height="500" /> </g> <g transform="translate(18,18) scale(0.002)" > <rect width="500" height="500" /> </g> <g transform="translate(20,18) scale(0.002)" > <rect width="500" height="500" /> </g> <g transform="translate(24,18) scale(0.002)" > <rect width="500" height="500" /> </g> <g transform="translate(9,19) scale(0.002)" > <rect width="500" height="500" /> </g> <g transform="translate(11,19) scale(0.002)" > <rect width="500" height="500" /> </g> <g transform="translate(12,19) scale(0.002)" > <rect width="500" height="500" /> </g> <g transform="translate(16,19) scale(0.002)" > <rect width="500" height="500" /> </g> <g transform="translate(20,19) scale(0.002)" > <rect width="500" height="500" /> </g> <g transform="translate(24,19) scale(0.002)" > <rect width="500" height="500" /> </g> <g transform="translate(10,20) scale(0.002)" > <rect width="500" height="500" /> </g> <g transform="translate(12,20) scale(0.002)" > <rect width="500" height="500" /> </g> <g transform="translate(15,20) scale(0.002)" > <rect width="500" height="500" /> </g> <g transform="translate(16,20) scale(0.002)" > <rect width="500" height="500" /> </g> <g transform="translate(17,20) scale(0.002)" > <rect width="500" height="500" /> </g> <g transform="translate(18,20) scale(0.002)" > <rect width="500" height="500" /> </g> <g transform="translate(19,20) scale(0.002)" > <rect width="500" height="500" /> </g> <g transform="translate(20,20) scale(0.002)" > <rect width="500" height="500" /> </g> <g transform="translate(23,20) scale(0.002)" > <rect width="500" height="500" /> </g> <g transform="translate(9,21) scale(0.002)" > <rect width="500" height="500" /> </g> <g transform="translate(11,21) scale(0.002)" > <rect width="500" height="500" /> </g> <g transform="translate(12,21) scale(0.002)" > <rect width="500" height="500" /> </g> <g transform="translate(14,21) scale(0.002)" > <rect width="500" height="500" /> </g> <g transform="translate(15,21) scale(0.002)" > <rect width="500" height="500" /> </g> <g transform="translate(16,21) scale(0.002)" > <rect width="500" height="500" /> </g> <g transform="translate(17,21) scale(0.002)" > <rect width="500" height="500" /> </g> <g transform="translate(20,21) scale(0.002)" > <rect width="500" height="500" /> </g> <g transform="translate(22,21) scale(0.002)" > <rect width="500" height="500" /> </g> <g transform="translate(23,21) scale(0.002)" > <rect width="500" height="500" /> </g> <g transform="translate(8,22) scale(0.002)" > <rect width="500" height="500" /> </g> <g transform="translate(9,22) scale(0.002)" > <rect width="500" height="500" /> </g> <g transform="translate(10,22) scale(0.002)" > <rect width="500" height="500" /> </g> <g transform="translate(11,22) scale(0.002)" > <rect width="500" height="500" /> </g> <g transform="translate(12,22) scale(0.002)" > <rect width="500" height="500" /> </g> <g transform="translate(14,22) scale(0.002)" > <rect width="500" height="500" /> </g> <g transform="translate(16,22) scale(0.002)" > <rect width="500" height="500" /> </g> <g transform="translate(19,22) scale(0.002)" > <rect width="500" height="500" /> </g> <g transform="translate(20,22) scale(0.002)" > <rect width="500" height="500" /> </g> <g transform="translate(21,22) scale(0.002)" > <rect width="500" height="500" /> </g> <g transform="translate(23,22) scale(0.002)" > <rect width="500" height="500" /> </g> <g transform="translate(24,22) scale(0.002)" > <rect width="500" height="500" /> </g> <g transform="translate(11,23) scale(0.002)" > <rect width="500" height="500" /> </g> <g transform="translate(12,23) scale(0.002)" > <rect width="500" height="500" /> </g> <g transform="translate(14,23) scale(0.002)" > <rect width="500" height="500" /> </g> <g transform="translate(15,23) scale(0.002)" > <rect width="500" height="500" /> </g> <g transform="translate(16,23) scale(0.002)" > <rect width="500" height="500" /> </g> <g transform="translate(17,23) scale(0.002)" > <rect width="500" height="500" /> </g> <g transform="translate(19,23) scale(0.002)" > <rect width="500" height="500" /> </g> <g transform="translate(20,23) scale(0.002)" > <rect width="500" height="500" /> </g> <g transform="translate(8,24) scale(0.002)" > <rect width="500" height="500" /> </g> <g transform="translate(10,24) scale(0.002)" > <rect width="500" height="500" /> </g> <g transform="translate(12,24) scale(0.002)" > <rect width="500" height="500" /> </g> <g transform="translate(14,24) scale(0.002)" > <rect width="500" height="500" /> </g> <g transform="translate(16,24) scale(0.002)" > <rect width="500" height="500" /> </g> <g transform="translate(18,24) scale(0.002)" > <rect width="500" height="500" /> </g> <g transform="translate(21,24) scale(0.002)" > <rect width="500" height="500" /> </g> <g transform="translate(24,24) scale(0.002)" > <rect width="500" height="500" /> </g> </g> </g> </mask> </defs> <g fill="#ba2626" fill-opacity="0"> <rect width="100%" height="100%"></rect> </g> <g transform="translate(0,0) scale(40.0) " > <rect x="0" y="0" width="25" height="25" mask="url(#qrcodemask)" fill="#ffffff"></rect> <g transform="translate(0,0)"> <g transform="scale(0.01) rotate(0 350 350)" fill="#ffffff"> <path d="M 0 0 H 700 V 700 H 0 V 0 Z M 100 100 V 600 H 600 V 100 H 100 Z"/> </g> </g> <g transform="translate(2,2)"> <g transform="scale(0.01) rotate(0 150 150)" fill="#ffffff"> <rect width="300" height="300"/> </g> </g> <g transform="translate(18,0)"> <g transform="scale(0.01) rotate(0 350 350)" fill="#ffffff"> <path d="M 0 0 H 700 V 700 H 0 V 0 Z M 100 100 V 600 H 600 V 100 H 100 Z"/> </g> </g> <g transform="translate(20,2)"> <g transform="scale(0.01) rotate(0 150 150)" fill="#ffffff"> <rect width="300" height="300"/> </g> </g> <g transform="translate(0,18)"> <g transform="scale(0.01) rotate(0 350 350)" fill="#ffffff"> <path d="M 0 0 H 700 V 700 H 0 V 0 Z M 100 100 V 600 H 600 V 100 H 100 Z"/> </g> </g> <g transform="translate(2,20)"> <g transform="scale(0.01) rotate(0 150 150)" fill="#ffffff"> <rect width="300" height="300"/> </g> </g> <g> </g> </g> </svg>